<?xml version="1.0" encoding="utf-8"?>
<!-- Generator: Adobe Illustrator 27.8.0, SVG Export Plug-In . SVG Version: 6.00 Build 0)  -->
<svg version="1.1" id="Layer_2_00000154426550901432856680000006597819413304808837_"
	 xmlns="http://www.w3.org/2000/svg" xmlns:xlink="http://www.w3.org/1999/xlink" x="0px" y="0px" viewBox="0 0 3505.8 480.5"
	 style="enable-background:new 0 0 3505.8 480.5;" xml:space="preserve">
<style type="text/css">
	.st0{fill:#1E1E1E;}
</style>
<g id="Layer_1-2">
	<g>
		<g>
			<path class="st0" d="M697.1,277.7h55.3c3.9,46.6,31.5,78.1,96.5,78.1c55.8,0,72.8-24.3,72.8-55.8c0-44.1-34-50.5-97-66.5
				c-54.3-14.6-114-32-114-98C710.7,75.4,757.3,41,832,41c79.1,0,130.5,40.3,135.8,110.1h-55.3c-5.8-41.7-29.6-64.5-80.1-64.5
				c-43.7,0-66,16-66,46.1c0,38.8,36.4,47.1,81,58.2c67,17,130,33,130,106.3c0,59.7-40.3,104.3-127.1,104.3S701,355.9,697.1,277.7
				L697.1,277.7z"/>
			<path class="st0" d="M1171.1,147.2h47.6v247.4h-47.6v-31h-1c-13.1,18.9-38.8,37.9-81.5,37.9c-45.6,0-82.5-26.2-82.5-83V147.2
				h47.6v158.2c0,33.5,14.6,55.8,50.5,55.8c40.8,0,67-24.7,67-62.1L1171.1,147.2L1171.1,147.2z"/>
			<path class="st0" d="M1498.1,271c0,81.5-48,130.5-111.1,130.5c-38.8,0-62.6-17.5-76.2-37.4h-1v116.5h-47.6V147.2h47.6v29.1h1
				c13.6-17.5,37.4-36.4,76.2-36.4C1450.1,139.9,1498.1,189.4,1498.1,271L1498.1,271z M1448.2,271c0-48.5-22.3-91.2-68.9-91.2
				c-42.7,0-68.9,34.9-68.9,91.2s26.2,91.2,68.9,91.2C1425.8,362.2,1448.2,319.5,1448.2,271z"/>
			<path class="st0" d="M1755.8,283.6h-190.2c1,41.2,25.2,79.6,74.2,79.6c43.7,0,60.7-28.1,65-44.6h48.5
				c-13.1,47.5-49.5,83.5-114.5,83.5c-78.6,0-122.3-55.8-122.3-131.5s46.6-131,122.3-131s117.4,49.5,117.4,126.1
				C1756.3,272.4,1756.3,279.7,1755.8,283.6L1755.8,283.6z M1706.8,246.2c0-38.8-27.2-67.9-69.4-67.9c-39.8,0-68.9,27.2-71.8,67.9
				L1706.8,246.2L1706.8,246.2z"/>
			<path class="st0" d="M1834.4,188.5v206.2h-47.6V194.8c0-14.2,6.5-27.8,17.4-36.8c5.4-4.4,11.8-7.7,18.6-9.4
				c8.7-2.2,17.8-1.4,26.6-1.4c13.8,0,27.5,0,41.3,0h33.9v41.3h-39.2"/>
			<path class="st0" d="M2181.8,271c0,81.5-48,130.5-111.1,130.5c-38.8,0-62.6-17.5-76.2-37.4h-1v116.5h-47.6V147.2h47.6v29.1h1
				c13.6-17.5,37.4-36.4,76.2-36.4C2133.7,139.9,2181.8,189.4,2181.8,271L2181.8,271z M2131.8,271c0-48.5-22.3-91.2-68.9-91.2
				c-42.7,0-68.9,34.9-68.9,91.2s26.2,91.2,68.9,91.2C2109.5,362.2,2131.8,319.5,2131.8,271z"/>
			<path class="st0" d="M2199.7,271c0-77.1,46.6-131.5,124.2-131.5s123.2,53.9,123.2,131S2400.6,402,2323.4,402
				S2199.7,348.6,2199.7,271L2199.7,271z M2397.6,271c0-51.9-23.3-91.7-73.8-91.7s-74.7,39.8-74.7,91.7s23.3,91.7,74.7,91.7
				S2397.6,322.4,2397.6,271z"/>
			<path class="st0" d="M2461.2,312.2h48c1.9,28.6,19.4,51,65.5,51c41.7,0,52.9-18.4,52.9-36.4c0-31-33-34.5-65-41.2
				c-43.2-10.2-92.7-22.8-92.7-74.2c0-42.7,34.4-71.3,94.1-71.3c67.9,0,100.4,36.4,103.8,79.1h-48c-3.4-18.9-13.6-40.8-54.8-40.8
				c-32,0-45.6,12.6-45.6,31.1c0,25.7,27.7,28.1,62.6,35.9c45.6,10.7,95.1,23.8,95.1,79.1c0,48-36.9,77.1-101.9,77.1
				C2500,401.5,2462.6,362.6,2461.2,312.2L2461.2,312.2z"/>
			<path class="st0" d="M2701.8,103.1V51.6h53.9v51.4H2701.8z M2704.8,394.7V147.2h47.6v247.4H2704.8z"/>
			<path class="st0" d="M2907.6,356.3v38.3c-12.1,2.4-19.9,2.9-30.1,2.9c-40.8,0-65.5-15.5-65.5-72.8V186.5h-35.9v-39.3h35.9v-41.3
				l47.6-38.2v79.6h47.6v39.3h-47.6v139.7c0,26.2,7.3,32,27.7,32C2895.4,358.3,2899.3,357.8,2907.6,356.3L2907.6,356.3z"/>
			<path class="st0" d="M2934.2,103.1V51.6h53.9v51.4H2934.2z M2937.1,394.7V147.2h47.6v247.4H2937.1z"/>
			<path class="st0" d="M3015.2,271c0-77.1,46.6-131.5,124.2-131.5s123.2,53.9,123.2,131S3216.1,402,3139,402
				S3015.2,348.6,3015.2,271L3015.2,271z M3213.2,271c0-51.9-23.3-91.7-73.8-91.7s-74.7,39.8-74.7,91.7s23.3,91.7,74.7,91.7
				S3213.2,322.4,3213.2,271z"/>
			<path class="st0" d="M3505.8,222.9v171.8h-47.6V236c0-33-14.6-55.3-50.5-55.3c-40.8,0-67,24.8-67,62.1v151.9h-47.6V147.2h47.6
				v31.1h1c13.1-18.9,38.8-38.3,81.5-38.3C3468.9,139.9,3505.8,166.1,3505.8,222.9L3505.8,222.9z"/>
		</g>
		<g>
			<path class="st0" d="M512,0H0v468h93.4l75.3-98c13.7-17.9,21.1-39.8,21.1-62.3V162.4c0-5.5,6.8-8.2,10.7-4.3l44.9,53h82.9
				l49.5-54c4-3.7,10.5-0.9,10.5,4.5v141.7l1.7,164.6H512L512,0L512,0z"/>
		</g>
	</g>
</g>
</svg>
